File size                        : 4.36 GiB
Duration                         : 3h 8mn
Overall bit rate                 : 3 318 Kbps

Width                            : 1 280 pixels
Height                           : 544 pixels
Display aspect ratio             : 2.35:1
Frame rate                       : 23.976 fps
Bit depth                        : 8 bits
Stream size                      : 3.43 GiB (79%)
Language                         : English

Audio
Codec ID                         : A_AC3
Bit rate                         : 640 Kbps
Channel(s)                       : 6 channels
Channel positions                : Front: L C R, Side: L R, LFE
Bit depth                        : 16 bits
Stream size                      : 861 MiB (19%)

Subtitles: Croatian, Danish, English, French, Greece, Hungarian, Indonesian, Netherland, Romanian, Rusian, Serbian, Spanish 

One of my fewest rips. Enjoy

Screens:

 
http://shareimage.ro/images/mc3wsty3u1ukl88rjldz.jpg
 
http://shareimage.ro/images/qcjugwk5f6sfh5ygt7z.jpg
 
http://shareimage.ro/images/rnymefawyeig06x7hfyj.jpg
 
http://shareimage.ro/images/b3l34uny16shkjo1mlgz.jpg
 
http://shareimage.ro/images/2p564rgv5cq25mdbkv6.jpg
 
http://shareimage.ro/images/dxpr90cljsw1398h1mjn.jpg
 
http://shareimage.ro/images/ekyrp3f7mwd3s7rjg33.jpg